<svg xmlns="http://www.w3.org/2000/svg" width="45.375" height="48" viewBox="0 0 45.375 48"><path d="M36-45a3.836,3.836,0,0,1,2.813,1.172,3.836,3.836,0,0,1,1.172,2.813V-.984a3.836,3.836,0,0,1-1.172,2.813A3.836,3.836,0,0,1,36,3H12A3.836,3.836,0,0,1,9.188,1.828,3.836,3.836,0,0,1,8.016-.984V-41.016a3.836,3.836,0,0,1,1.172-2.812A3.836,3.836,0,0,1,12-45Zm2.016,3.984a1.889,1.889,0,0,0-.562-1.43A2.013,2.013,0,0,0,36-42.984H12a2.013,2.013,0,0,0-1.453.539,1.889,1.889,0,0,0-.562,1.43V-.984a1.889,1.889,0,0,0,.563,1.43A2.013,2.013,0,0,0,12,.984H36A2.013,2.013,0,0,0,37.453.445a1.889,1.889,0,0,0,.563-1.43ZM24-30.984a10,10,0,0,1,3.938.773A9.848,9.848,0,0,1,31.1-28.1a9.848,9.848,0,0,1,2.109,3.164A10,10,0,0,1,33.984-21a10,10,0,0,1-.773,3.938A9.848,9.848,0,0,1,31.1-13.9a9.848,9.848,0,0,1-3.164,2.109A10,10,0,0,1,24-11.016a10,10,0,0,1-3.937-.773A9.848,9.848,0,0,1,16.9-13.9a9.848,9.848,0,0,1-2.109-3.164A10,10,0,0,1,14.016-21a10,10,0,0,1,.773-3.937A9.848,9.848,0,0,1,16.9-28.1a9.848,9.848,0,0,1,3.164-2.109A10,10,0,0,1,24-30.984Zm0,18a7.827,7.827,0,0,0,5.672-2.344A7.97,7.97,0,0,0,32.2-20.812a5.887,5.887,0,0,0-.281-1.781,16.769,16.769,0,0,0-.7-1.828l-7.031,7.031-4.781-4.828,1.406-1.359L24-20.391l6-6a9.573,9.573,0,0,0-2.719-1.922,7.634,7.634,0,0,0-3.281-.7,7.711,7.711,0,0,0-5.648,2.367A7.711,7.711,0,0,0,15.984-21a7.711,7.711,0,0,0,2.367,5.648A7.711,7.711,0,0,0,24-12.984ZM20.016-39h7.969v2.016H20.016Zm6,33.984a1.945,1.945,0,0,1-.586,1.43A1.945,1.945,0,0,1,24-3a1.945,1.945,0,0,1-1.43-.586,1.945,1.945,0,0,1-.586-1.43A1.891,1.891,0,0,1,22.57-6.4,1.945,1.945,0,0,1,24-6.984a1.945,1.945,0,0,1,1.43.586A1.891,1.891,0,0,1,26.016-5.016ZM41.3-31.734l3.984-3.937,1.406,1.406L42.75-30.328ZM42-21h3.984v2.016H42Zm-.7,10.734,1.453-1.406,3.938,3.938L45.281-6.328Zm-39.984-24,1.406-1.406L6.7-31.734,5.25-30.328ZM2.016-21H6v2.016H2.016Zm-.7,13.266L5.25-11.672,6.7-10.266,2.719-6.328Z" transform="translate(-1.313 45)" fill="#d3aa85"/></svg>