<svg xmlns="http://www.w3.org/2000/svg" width="48" height="48" viewBox="0 0 48 48"><path d="M23.2-21.8l1.406,1.406,6.984-7.031a9,9,0,0,1,1.8,3A10.1,10.1,0,0,1,33.984-21a10,10,0,0,1-.773,3.938A9.848,9.848,0,0,1,31.1-13.9a9.848,9.848,0,0,1-3.164,2.109A10,10,0,0,1,24-11.016a10,10,0,0,1-3.937-.773A9.848,9.848,0,0,1,16.9-13.9a9.848,9.848,0,0,1-2.109-3.164A10,10,0,0,1,14.016-21a10,10,0,0,1,.773-3.937A9.848,9.848,0,0,1,16.9-28.1a9.848,9.848,0,0,1,3.164-2.109A10,10,0,0,1,24-30.984a11.4,11.4,0,0,1,1.781.141,8.394,8.394,0,0,1,1.641.422l1.594-1.594a23.831,23.831,0,0,0-2.437-.7A11.438,11.438,0,0,0,24-33a11.678,11.678,0,0,0-4.664.938,12.12,12.12,0,0,0-3.82,2.578,12.12,12.12,0,0,0-2.578,3.82A11.678,11.678,0,0,0,12-21a11.678,11.678,0,0,0,.938,4.664,12.12,12.12,0,0,0,2.578,3.82,12.12,12.12,0,0,0,3.82,2.578A11.678,11.678,0,0,0,24-9a11.678,11.678,0,0,0,4.664-.937,12.12,12.12,0,0,0,3.82-2.578,12.12,12.12,0,0,0,2.578-3.82A11.678,11.678,0,0,0,36-21a11.9,11.9,0,0,0-.727-4.2,12.376,12.376,0,0,0-2.086-3.586l2.2-2.2H42l.984-1.031a18.151,18.151,0,0,1,1.266,2.438q.516,1.219.938,2.578H47.2a20.216,20.216,0,0,0-1.2-3.352,33.862,33.862,0,0,0-1.617-3.07L48-36.984l-3.187-3.234,1.969-1.969-1.359-1.406-2.016,2.016L39.984-45l-6,6v6.609ZM36-38.2l3.984-3.984,5.2,5.2L41.2-33H36Zm9.8,15.188a5.9,5.9,0,0,0,.094,1.008A5.9,5.9,0,0,1,45.984-21q0,.469-.023,1.008a4.119,4.119,0,0,1-.164,1.008h2.016a5.9,5.9,0,0,1,.094-1.008A5.9,5.9,0,0,0,48-21v-2.016ZM24,.984A21.676,21.676,0,0,1,15.4-.727,21.964,21.964,0,0,1,8.414-5.414,21.964,21.964,0,0,1,3.727-12.4,21.676,21.676,0,0,1,2.016-21a21.676,21.676,0,0,1,1.711-8.6,21.964,21.964,0,0,1,4.688-6.984A21.964,21.964,0,0,1,15.4-41.273,21.676,21.676,0,0,1,24-42.984a22.178,22.178,0,0,1,4.359.422,24.027,24.027,0,0,1,4.031,1.172l1.594-1.594a32.337,32.337,0,0,0-4.828-1.477A23.829,23.829,0,0,0,24-45a23.107,23.107,0,0,0-9.328,1.9,24.484,24.484,0,0,0-7.617,5.156A24.484,24.484,0,0,0,1.9-30.328,23.107,23.107,0,0,0,0-21a23.107,23.107,0,0,0,1.9,9.328A24.484,24.484,0,0,0,7.055-4.055,24.484,24.484,0,0,0,14.672,1.1,23.107,23.107,0,0,0,24,3a23.4,23.4,0,0,0,7.992-1.359,24.314,24.314,0,0,0,6.82-3.75,23.926,23.926,0,0,0,5.227-5.7A23.392,23.392,0,0,0,47.2-15H45.188a21.624,21.624,0,0,1-3,6.4,22.09,22.09,0,0,1-4.8,5.063A22.2,22.2,0,0,1,31.172-.211,21.59,21.59,0,0,1,24,.984Z" transform="translate(0 45)" fill="#d3aa85"/></svg>