<svg xmlns="http://www.w3.org/2000/svg" width="48" height="46.781" viewBox="0 0 48 46.781"><path d="M13.406.188l1.172,1.594L24-3.8l9.422,5.578L34.594.188,24-6.187Zm2.578-17.2V-33H8.016v15.984Zm-6-13.969h4.031v12H9.984Zm18,13.969v-12H20.016v12Zm-6-9.984h4.031v8.016H21.984Zm18,9.984V-36.984H32.016v19.969Zm-6-18h4.031v16.031H33.984Zm12,22.031a1.933,1.933,0,0,1-.539,1.43,1.933,1.933,0,0,1-1.43.539H3.984a1.933,1.933,0,0,1-1.43-.539,1.933,1.933,0,0,1-.539-1.43V-41.016a1.933,1.933,0,0,1,.539-1.43,1.933,1.933,0,0,1,1.43-.539H44.016a1.933,1.933,0,0,1,1.43.539,1.933,1.933,0,0,1,.539,1.43H48a3.836,3.836,0,0,0-1.172-2.812A3.836,3.836,0,0,0,44.016-45H3.984a3.836,3.836,0,0,0-2.812,1.172A3.836,3.836,0,0,0,0-41.016v28.031a3.836,3.836,0,0,0,1.172,2.813A3.836,3.836,0,0,0,3.984-9H44.016a3.836,3.836,0,0,0,2.813-1.172A3.836,3.836,0,0,0,48-12.984V-29.016H45.984Zm0-20.016H48v-3.984H45.984Z" transform="translate(0 45)" fill="#d3aa85"/></svg>