<svg xmlns="http://www.w3.org/2000/svg" width="48" height="48" viewBox="0 0 48 48"><path d="M32.016-21a7.711,7.711,0,0,0-2.367-5.648A7.711,7.711,0,0,0,24-29.016a7.711,7.711,0,0,0-5.648,2.367A7.711,7.711,0,0,0,15.984-21a7.711,7.711,0,0,0,2.367,5.648A7.711,7.711,0,0,0,24-12.984a7.711,7.711,0,0,0,5.648-2.367A7.711,7.711,0,0,0,32.016-21ZM24-15a5.8,5.8,0,0,1-4.266-1.734A5.8,5.8,0,0,1,18-21a5.8,5.8,0,0,1,1.734-4.266A5.8,5.8,0,0,1,24-27a5.8,5.8,0,0,1,4.266,1.734A5.8,5.8,0,0,1,30-21a5.8,5.8,0,0,1-1.734,4.266A5.8,5.8,0,0,1,24-15ZM27.984,3H30V-.984H27.984ZM42-21a12.082,12.082,0,0,0-.094-1.5,12.082,12.082,0,0,1-.094-1.5L48-27.422,42.188-38.016,36-34.406a21.548,21.548,0,0,0-2.859-2.086A18.2,18.2,0,0,0,30-38.016V-45H18v6.984a18.2,18.2,0,0,0-3.141,1.523A21.548,21.548,0,0,0,12-34.406L5.813-37.781,0-27.422,6.188-24a12.082,12.082,0,0,1-.094,1.5A12.082,12.082,0,0,0,6-21a12.082,12.082,0,0,0,.094,1.5A12.082,12.082,0,0,1,6.188-18L0-14.578,5.813-3.984,12-7.594a21.548,21.548,0,0,0,2.859,2.086A18.2,18.2,0,0,0,18-3.984V3h6V.984H20.016V-5.391a20.953,20.953,0,0,1-4.1-1.852,17.848,17.848,0,0,1-3.492-2.742L6.8-6.8,3-13.781l5.391-3.234q-.141-1.031-.258-1.992A16.452,16.452,0,0,1,8.016-21a16.452,16.452,0,0,1,.117-1.992q.117-.961.258-1.992L2.813-28.219l3.8-6.984q1.359.75,2.789,1.523t2.789,1.664a29.991,29.991,0,0,1,3.68-2.6,34.03,34.03,0,0,1,3.914-1.992v-6.375H27.8v6.375q1.359.469,2.672,1.055A21.712,21.712,0,0,1,33-34.219a15.956,15.956,0,0,0,1.289,1.2,6.315,6.315,0,0,0,1.289,1.008q1.359-.75,2.813-1.523T41.2-35.2L45-28.219q-.469.188-3.117,1.547t-2.461,1.688q.141,1.031.258,1.992A16.452,16.452,0,0,1,39.8-21a16.452,16.452,0,0,1-.117,1.992q-.117.961-.258,1.992L45-13.781,41.2-6.8,38.391-8.391,35.578-9.984a15.843,15.843,0,0,1-2.625,2.109A31.111,31.111,0,0,1,30-6.187v2.2a18.2,18.2,0,0,0,3.141-1.523A21.548,21.548,0,0,0,36-7.594l6.188,3.375L48-14.812l-6.187-3.375a10.5,10.5,0,0,1,.094-1.336A11.527,11.527,0,0,0,42-21Z" transform="translate(0 45)" fill="#d3aa85"/></svg>