<svg xmlns="http://www.w3.org/2000/svg" width="48" height="48" viewBox="0 0 48 48"><path d="M27.984-18.984a7.687,7.687,0,0,0,5.672-2.367A7.749,7.749,0,0,0,36-27V-40.781l5.391,4.594L42.8-37.781,35.2-44.391l-7.594,6.609,1.406,1.594,4.969-4.594V-27a5.839,5.839,0,0,1-1.711,4.266A5.777,5.777,0,0,1,27.984-21H18a5.609,5.609,0,0,0-3.094.938,9.831,9.831,0,0,0-2.555,2.414,12.4,12.4,0,0,0-1.734,3.234,10.011,10.011,0,0,0-.633,3.4v6H12v-6a9.784,9.784,0,0,1,1.734-5.25A5.017,5.017,0,0,1,18-18.984Zm-24-24h24V-45h-24a3.836,3.836,0,0,0-2.812,1.172A3.836,3.836,0,0,0,0-41.016V-.984A3.836,3.836,0,0,0,1.172,1.828,3.836,3.836,0,0,0,3.984,3V.984A1.933,1.933,0,0,1,2.555.445a1.933,1.933,0,0,1-.539-1.43V-41.016a1.933,1.933,0,0,1,.539-1.43A1.933,1.933,0,0,1,3.984-42.984ZM9.984,3H12V-.984H9.984Zm.8-31.219,3.234-3.375L17.2-28.219,18.8-29.812,15.422-33,18.8-36.187,17.2-37.781l-3.187,3.375-3.234-3.375L9.188-36.187,12.609-33,9.188-29.812ZM39.188-13.781,36-10.406l-3.187-3.375-1.594,1.594L34.594-9,31.219-5.812l1.594,1.594L36-7.594l3.188,3.375,1.594-1.594L37.406-9l3.375-3.187Zm6.8-27.234H48a3.836,3.836,0,0,0-1.172-2.812A3.836,3.836,0,0,0,44.016-45H42v2.016h2.016a1.933,1.933,0,0,1,1.43.539A1.933,1.933,0,0,1,45.984-41.016Zm0,40.031a1.933,1.933,0,0,1-.539,1.43,1.933,1.933,0,0,1-1.43.539H18V3H44.016a3.836,3.836,0,0,0,2.813-1.172A3.836,3.836,0,0,0,48-.984V-29.016H45.984Zm0-32.016H48v-3.984H45.984Z" transform="translate(0 45)" fill="#d3aa85"/></svg>